<svg width="1400" height="380" viewBox="0 0 1400 380" fill="none" xmlns="http://www.w3.org/2000/svg">
  <defs>
    <linearGradient id="bg" x1="100" y1="48" x2="1300" y2="350" gradientUnits="userSpaceOnUse">
      <stop stop-color="#122531"/>
      <stop offset="1" stop-color="#203845"/>
    </linearGradient>
    <linearGradient id="plate" x1="115" y1="216" x2="315" y2="216" gradientUnits="userSpaceOnUse">
      <stop stop-color="#2B4550"/>
      <stop offset="1" stop-color="#3F6570"/>
    </linearGradient>
    <linearGradient id="upright" x1="156" y1="86" x2="250" y2="228" gradientUnits="userSpaceOnUse">
      <stop stop-color="#F08C4A"/>
      <stop offset="1" stop-color="#D5642C"/>
    </linearGradient>
  </defs>

  <rect x="20" y="20" width="1360" height="340" rx="58" fill="url(#bg)"/>
  <rect x="20" y="20" width="1360" height="340" rx="58" stroke="#34505C" stroke-width="4"/>

  <path d="M115 220L215 180L315 220L251 255L151 255L115 220Z" fill="url(#plate)"/>
  <path d="M151 255H251V273H151V255Z" fill="#233A43"/>
  <path d="M251 255L315 220V238L251 273V255Z" fill="#27414B"/>

  <path d="M160 215L250 180V240L160 275V215Z" fill="url(#upright)"/>
  <path d="M160 215L132 202L222 167L250 180L160 215Z" fill="#FFB16E"/>
  <path d="M132 202L160 215V275L132 262V202Z" fill="#B84C1F"/>

  <path d="M183 209L230 190V219L183 237V209Z" fill="#10212B"/>
  <path d="M183 209L169 202L216 184L230 190L183 209Z" fill="#22404B"/>
  <path d="M169 202L183 209V237L169 230V202Z" fill="#0B1A22"/>

  <circle cx="266" cy="218" r="14" fill="#8EB3AE"/>
  <circle cx="266" cy="218" r="6" fill="#122531"/>

  <text x="382" y="108" fill="#8EB3AE" font-size="28" font-family="Segoe UI, Arial, sans-serif" font-weight="700" letter-spacing="5">AI-NATIVE CADQUERY EMBODIMENT TOOLING</text>
  <text x="382" y="248" fill="#F8F3EC" font-size="170" font-family="Avenir Next, Segoe UI, Arial, sans-serif" font-weight="800" letter-spacing="1">embod</text>
  <text x="382" y="320" fill="#D9CCBC" font-size="31" font-family="Segoe UI, Arial, sans-serif">Parts, assemblies, robot semantics, exports, diagnostics, and snapshots.</text>
</svg>
